<mxfile host="app.diagrams.net" modified="2023-10-27T11:08:33.387Z" agent="Mozilla/5.0 (X11; Linux x86_64; rv:109.0) Gecko/20100101 Firefox/119.0" etag="IfgHC5vqMPlnznEW-AeS" version="22.0.8" type="device">
  <diagram id="C5RBs43oDa-KdzZeNtuy" name="Page-1">
    <mxGraphModel dx="1481" dy="787" grid="1" gridSize="10" guides="1" tooltips="1" connect="1" arrows="1" fold="1" page="1" pageScale="1" pageWidth="827" pageHeight="1169" math="0" shadow="0">
      <root>
        <mxCell id="WIyWlLk6GJQsqaUBKTNV-0" />
        <mxCell id="WIyWlLk6GJQsqaUBKTNV-1" parent="WIyWlLk6GJQsqaUBKTNV-0" />
        <mxCell id="CHKVVRWl1DC87nrm_dnB-16" style="edgeStyle=orthogonalEdgeStyle;rounded=0;orthogonalLoop=1;jettySize=auto;html=1;exitX=1;exitY=0.5;exitDx=0;exitDy=0;entryX=0;entryY=0.5;entryDx=0;entryDy=0;strokeColor=#FF8000;" edge="1" parent="WIyWlLk6GJQsqaUBKTNV-1" source="CHKVVRWl1DC87nrm_dnB-0" target="CHKVVRWl1DC87nrm_dnB-3">
          <mxGeometry relative="1" as="geometry" />
        </mxCell>
        <mxCell id="CHKVVRWl1DC87nrm_dnB-52" style="edgeStyle=orthogonalEdgeStyle;rounded=0;orthogonalLoop=1;jettySize=auto;html=1;fontColor=#97D077;" edge="1" parent="WIyWlLk6GJQsqaUBKTNV-1" source="CHKVVRWl1DC87nrm_dnB-0" target="CHKVVRWl1DC87nrm_dnB-1">
          <mxGeometry relative="1" as="geometry" />
        </mxCell>
        <mxCell id="CHKVVRWl1DC87nrm_dnB-0" value="&lt;div&gt;Profiles&lt;/div&gt;" style="rounded=1;whiteSpace=wrap;html=1;" vertex="1" parent="WIyWlLk6GJQsqaUBKTNV-1">
          <mxGeometry x="80" y="50" width="160" height="80" as="geometry" />
        </mxCell>
        <mxCell id="CHKVVRWl1DC87nrm_dnB-5" style="edgeStyle=orthogonalEdgeStyle;orthogonalLoop=1;jettySize=auto;html=1;exitX=0;exitY=0.5;exitDx=0;exitDy=0;entryX=0;entryY=0.5;entryDx=0;entryDy=0;curved=1;" edge="1" parent="WIyWlLk6GJQsqaUBKTNV-1" source="CHKVVRWl1DC87nrm_dnB-1" target="CHKVVRWl1DC87nrm_dnB-0">
          <mxGeometry relative="1" as="geometry" />
        </mxCell>
        <mxCell id="CHKVVRWl1DC87nrm_dnB-1" value="&lt;div&gt;Calibration&lt;/div&gt;" style="rounded=1;whiteSpace=wrap;html=1;" vertex="1" parent="WIyWlLk6GJQsqaUBKTNV-1">
          <mxGeometry x="80" y="220" width="160" height="80" as="geometry" />
        </mxCell>
        <mxCell id="CHKVVRWl1DC87nrm_dnB-12" style="edgeStyle=orthogonalEdgeStyle;rounded=0;orthogonalLoop=1;jettySize=auto;html=1;exitX=0.5;exitY=1;exitDx=0;exitDy=0;entryX=0.5;entryY=0;entryDx=0;entryDy=0;" edge="1" parent="WIyWlLk6GJQsqaUBKTNV-1" source="CHKVVRWl1DC87nrm_dnB-2" target="CHKVVRWl1DC87nrm_dnB-10">
          <mxGeometry relative="1" as="geometry" />
        </mxCell>
        <mxCell id="CHKVVRWl1DC87nrm_dnB-2" value="&lt;div align=&quot;left&quot;&gt;Profile n: Run&lt;br&gt;&lt;/div&gt;" style="rounded=1;whiteSpace=wrap;html=1;" vertex="1" parent="WIyWlLk6GJQsqaUBKTNV-1">
          <mxGeometry x="590" y="50" width="160" height="80" as="geometry" />
        </mxCell>
        <mxCell id="CHKVVRWl1DC87nrm_dnB-8" style="edgeStyle=orthogonalEdgeStyle;orthogonalLoop=1;jettySize=auto;html=1;exitX=0.5;exitY=1;exitDx=0;exitDy=0;curved=1;startArrow=none;startFill=0;" edge="1" parent="WIyWlLk6GJQsqaUBKTNV-1" source="CHKVVRWl1DC87nrm_dnB-3" target="CHKVVRWl1DC87nrm_dnB-6">
          <mxGeometry relative="1" as="geometry">
            <Array as="points">
              <mxPoint x="430" y="140" />
              <mxPoint x="430" y="140" />
            </Array>
          </mxGeometry>
        </mxCell>
        <mxCell id="CHKVVRWl1DC87nrm_dnB-11" style="edgeStyle=orthogonalEdgeStyle;rounded=0;orthogonalLoop=1;jettySize=auto;html=1;exitX=1;exitY=0.5;exitDx=0;exitDy=0;strokeColor=#FF8000;" edge="1" parent="WIyWlLk6GJQsqaUBKTNV-1" source="CHKVVRWl1DC87nrm_dnB-3" target="CHKVVRWl1DC87nrm_dnB-2">
          <mxGeometry relative="1" as="geometry" />
        </mxCell>
        <mxCell id="CHKVVRWl1DC87nrm_dnB-63" style="edgeStyle=orthogonalEdgeStyle;rounded=0;orthogonalLoop=1;jettySize=auto;html=1;exitX=0;exitY=0.25;exitDx=0;exitDy=0;entryX=1;entryY=0.25;entryDx=0;entryDy=0;strokeColor=#3399FF;" edge="1" parent="WIyWlLk6GJQsqaUBKTNV-1" source="CHKVVRWl1DC87nrm_dnB-3" target="CHKVVRWl1DC87nrm_dnB-0">
          <mxGeometry relative="1" as="geometry" />
        </mxCell>
        <mxCell id="CHKVVRWl1DC87nrm_dnB-3" value="Profile n" style="rounded=1;whiteSpace=wrap;html=1;" vertex="1" parent="WIyWlLk6GJQsqaUBKTNV-1">
          <mxGeometry x="350" y="50" width="160" height="80" as="geometry" />
        </mxCell>
        <mxCell id="CHKVVRWl1DC87nrm_dnB-9" style="edgeStyle=orthogonalEdgeStyle;orthogonalLoop=1;jettySize=auto;html=1;exitX=0.5;exitY=1;exitDx=0;exitDy=0;entryX=0;entryY=0.75;entryDx=0;entryDy=0;curved=1;startArrow=none;startFill=0;" edge="1" parent="WIyWlLk6GJQsqaUBKTNV-1" source="CHKVVRWl1DC87nrm_dnB-6" target="CHKVVRWl1DC87nrm_dnB-3">
          <mxGeometry relative="1" as="geometry">
            <Array as="points">
              <mxPoint x="430" y="270" />
              <mxPoint x="310" y="270" />
              <mxPoint x="310" y="110" />
            </Array>
          </mxGeometry>
        </mxCell>
        <mxCell id="CHKVVRWl1DC87nrm_dnB-68" value="When n == MAX" style="edgeLabel;html=1;align=center;verticalAlign=middle;resizable=0;points=[];" vertex="1" connectable="0" parent="CHKVVRWl1DC87nrm_dnB-9">
          <mxGeometry x="-0.7756" y="-3" relative="1" as="geometry">
            <mxPoint as="offset" />
          </mxGeometry>
        </mxCell>
        <mxCell id="CHKVVRWl1DC87nrm_dnB-51" style="edgeStyle=orthogonalEdgeStyle;rounded=0;orthogonalLoop=1;jettySize=auto;html=1;exitX=1;exitY=0.5;exitDx=0;exitDy=0;endArrow=none;endFill=0;strokeColor=#FF8000;" edge="1" parent="WIyWlLk6GJQsqaUBKTNV-1" source="CHKVVRWl1DC87nrm_dnB-6">
          <mxGeometry relative="1" as="geometry">
            <mxPoint x="529.9999999999998" y="90" as="targetPoint" />
          </mxGeometry>
        </mxCell>
        <mxCell id="CHKVVRWl1DC87nrm_dnB-6" value="Profile n+1" style="rounded=1;whiteSpace=wrap;html=1;" vertex="1" parent="WIyWlLk6GJQsqaUBKTNV-1">
          <mxGeometry x="350" y="170" width="160" height="80" as="geometry" />
        </mxCell>
        <mxCell id="CHKVVRWl1DC87nrm_dnB-14" style="edgeStyle=orthogonalEdgeStyle;rounded=0;orthogonalLoop=1;jettySize=auto;html=1;exitX=0.5;exitY=1;exitDx=0;exitDy=0;entryX=0.5;entryY=0;entryDx=0;entryDy=0;" edge="1" parent="WIyWlLk6GJQsqaUBKTNV-1" source="CHKVVRWl1DC87nrm_dnB-10" target="CHKVVRWl1DC87nrm_dnB-13">
          <mxGeometry relative="1" as="geometry" />
        </mxCell>
        <mxCell id="CHKVVRWl1DC87nrm_dnB-10" value="Profile n: View" style="rounded=1;whiteSpace=wrap;html=1;" vertex="1" parent="WIyWlLk6GJQsqaUBKTNV-1">
          <mxGeometry x="590" y="170" width="160" height="80" as="geometry" />
        </mxCell>
        <mxCell id="CHKVVRWl1DC87nrm_dnB-15" style="edgeStyle=orthogonalEdgeStyle;rounded=0;orthogonalLoop=1;jettySize=auto;html=1;exitX=0;exitY=0.5;exitDx=0;exitDy=0;entryX=0;entryY=0.75;entryDx=0;entryDy=0;" edge="1" parent="WIyWlLk6GJQsqaUBKTNV-1" source="CHKVVRWl1DC87nrm_dnB-13" target="CHKVVRWl1DC87nrm_dnB-2">
          <mxGeometry relative="1" as="geometry">
            <mxPoint x="549.9999999999998" y="100" as="targetPoint" />
            <Array as="points">
              <mxPoint x="550" y="330" />
              <mxPoint x="550" y="110" />
            </Array>
          </mxGeometry>
        </mxCell>
        <mxCell id="CHKVVRWl1DC87nrm_dnB-23" style="edgeStyle=orthogonalEdgeStyle;rounded=0;orthogonalLoop=1;jettySize=auto;html=1;exitX=1;exitY=0.5;exitDx=0;exitDy=0;strokeColor=#FF8000;" edge="1" parent="WIyWlLk6GJQsqaUBKTNV-1" source="CHKVVRWl1DC87nrm_dnB-13" target="CHKVVRWl1DC87nrm_dnB-18">
          <mxGeometry relative="1" as="geometry" />
        </mxCell>
        <mxCell id="CHKVVRWl1DC87nrm_dnB-13" value="Profile n: Edit" style="rounded=1;whiteSpace=wrap;html=1;" vertex="1" parent="WIyWlLk6GJQsqaUBKTNV-1">
          <mxGeometry x="590" y="290" width="160" height="80" as="geometry" />
        </mxCell>
        <mxCell id="CHKVVRWl1DC87nrm_dnB-17" value="&lt;div style=&quot;font-size: 10px;&quot; align=&quot;left&quot;&gt;&lt;font style=&quot;font-size: 10px;&quot;&gt;Profile n:&lt;br&gt;Preheat start: 150c target: 90s&lt;/font&gt;&lt;/div&gt;&lt;div style=&quot;font-size: 10px;&quot; align=&quot;left&quot;&gt;&lt;font style=&quot;font-size: 10px;&quot;&gt;Preheat end:&amp;nbsp; 180c target: 180s&lt;/font&gt;&lt;/div&gt;&lt;div style=&quot;font-size: 10px;&quot; align=&quot;left&quot;&gt;&lt;font style=&quot;font-size: 10px;&quot;&gt;Ramp-up:&amp;nbsp;&amp;nbsp;&amp;nbsp;&amp;nbsp;&amp;nbsp;&amp;nbsp; 217c target: 210s&lt;/font&gt;&lt;/div&gt;&lt;div style=&quot;font-size: 10px;&quot; align=&quot;left&quot;&gt;&lt;font style=&quot;font-size: 10px;&quot;&gt;Peak: &amp;nbsp; &amp;nbsp; &amp;nbsp;&amp;nbsp;&amp;nbsp;&amp;nbsp;&amp;nbsp;&amp;nbsp;&amp;nbsp;&amp;nbsp; 249c target: 240s&lt;br&gt;&lt;/font&gt;&lt;/div&gt;" style="rounded=1;whiteSpace=wrap;html=1;align=left;verticalAlign=top;" vertex="1" parent="WIyWlLk6GJQsqaUBKTNV-1">
          <mxGeometry x="827" y="170" width="160" height="80" as="geometry" />
        </mxCell>
        <mxCell id="CHKVVRWl1DC87nrm_dnB-26" style="edgeStyle=orthogonalEdgeStyle;rounded=0;orthogonalLoop=1;jettySize=auto;html=1;exitX=1;exitY=0.5;exitDx=0;exitDy=0;strokeColor=#FF8000;" edge="1" parent="WIyWlLk6GJQsqaUBKTNV-1" source="CHKVVRWl1DC87nrm_dnB-18" target="CHKVVRWl1DC87nrm_dnB-25">
          <mxGeometry relative="1" as="geometry" />
        </mxCell>
        <mxCell id="CHKVVRWl1DC87nrm_dnB-18" value="&lt;div&gt;Preheat start:&lt;/div&gt;&lt;div&gt;Temp: 150 c&lt;br&gt;&lt;/div&gt;" style="rounded=1;whiteSpace=wrap;html=1;fillColor=#dae8fc;strokeColor=#6c8ebf;" vertex="1" parent="WIyWlLk6GJQsqaUBKTNV-1">
          <mxGeometry x="827" y="290" width="160" height="80" as="geometry" />
        </mxCell>
        <mxCell id="CHKVVRWl1DC87nrm_dnB-19" value="" style="endArrow=classic;startArrow=classic;html=1;rounded=0;exitX=1;exitY=0.5;exitDx=0;exitDy=0;entryX=0;entryY=0.5;entryDx=0;entryDy=0;endFill=1;strokeColor=#FF33FF;" edge="1" parent="WIyWlLk6GJQsqaUBKTNV-1" source="CHKVVRWl1DC87nrm_dnB-10" target="CHKVVRWl1DC87nrm_dnB-17">
          <mxGeometry width="50" height="50" relative="1" as="geometry">
            <mxPoint x="570" y="380" as="sourcePoint" />
            <mxPoint x="620" y="330" as="targetPoint" />
          </mxGeometry>
        </mxCell>
        <mxCell id="CHKVVRWl1DC87nrm_dnB-45" style="edgeStyle=orthogonalEdgeStyle;orthogonalLoop=1;jettySize=auto;html=1;exitX=1;exitY=0.5;exitDx=0;exitDy=0;entryX=0;entryY=0.5;entryDx=0;entryDy=0;curved=1;strokeColor=#FF8000;" edge="1" parent="WIyWlLk6GJQsqaUBKTNV-1" source="CHKVVRWl1DC87nrm_dnB-25" target="CHKVVRWl1DC87nrm_dnB-35">
          <mxGeometry relative="1" as="geometry">
            <Array as="points">
              <mxPoint x="1240" y="330" />
              <mxPoint x="1240" y="400" />
              <mxPoint x="770" y="400" />
              <mxPoint x="770" y="470" />
            </Array>
          </mxGeometry>
        </mxCell>
        <mxCell id="CHKVVRWl1DC87nrm_dnB-25" value="&lt;div&gt;Preheat start:&lt;/div&gt;&lt;div&gt;Target Time: 90 s&lt;br&gt;&lt;/div&gt;" style="rounded=1;whiteSpace=wrap;html=1;fillColor=#dae8fc;strokeColor=#6c8ebf;" vertex="1" parent="WIyWlLk6GJQsqaUBKTNV-1">
          <mxGeometry x="1060" y="290" width="160" height="80" as="geometry" />
        </mxCell>
        <mxCell id="CHKVVRWl1DC87nrm_dnB-34" style="edgeStyle=orthogonalEdgeStyle;rounded=0;orthogonalLoop=1;jettySize=auto;html=1;exitX=1;exitY=0.5;exitDx=0;exitDy=0;strokeColor=#FF8000;" edge="1" parent="WIyWlLk6GJQsqaUBKTNV-1" source="CHKVVRWl1DC87nrm_dnB-35" target="CHKVVRWl1DC87nrm_dnB-36">
          <mxGeometry relative="1" as="geometry" />
        </mxCell>
        <mxCell id="CHKVVRWl1DC87nrm_dnB-35" value="&lt;div&gt;Preheat end:&lt;/div&gt;&lt;div&gt;Temp: 180 c&lt;br&gt;&lt;/div&gt;" style="rounded=1;whiteSpace=wrap;html=1;fillColor=#dae8fc;strokeColor=#6c8ebf;" vertex="1" parent="WIyWlLk6GJQsqaUBKTNV-1">
          <mxGeometry x="827" y="430" width="160" height="80" as="geometry" />
        </mxCell>
        <mxCell id="CHKVVRWl1DC87nrm_dnB-36" value="&lt;div&gt;Preheat end:&lt;/div&gt;&lt;div&gt;Target Time: 180 s&lt;br&gt;&lt;/div&gt;" style="rounded=1;whiteSpace=wrap;html=1;fillColor=#dae8fc;strokeColor=#6c8ebf;" vertex="1" parent="WIyWlLk6GJQsqaUBKTNV-1">
          <mxGeometry x="1060" y="430" width="160" height="80" as="geometry" />
        </mxCell>
        <mxCell id="CHKVVRWl1DC87nrm_dnB-37" style="edgeStyle=orthogonalEdgeStyle;rounded=0;orthogonalLoop=1;jettySize=auto;html=1;exitX=1;exitY=0.5;exitDx=0;exitDy=0;strokeColor=#FF8000;" edge="1" parent="WIyWlLk6GJQsqaUBKTNV-1" source="CHKVVRWl1DC87nrm_dnB-38" target="CHKVVRWl1DC87nrm_dnB-39">
          <mxGeometry relative="1" as="geometry" />
        </mxCell>
        <mxCell id="CHKVVRWl1DC87nrm_dnB-38" value="&lt;div&gt;Ramp up:&lt;/div&gt;&lt;div&gt;Temp: 217 c&lt;br&gt;&lt;/div&gt;" style="rounded=1;whiteSpace=wrap;html=1;fillColor=#dae8fc;strokeColor=#6c8ebf;" vertex="1" parent="WIyWlLk6GJQsqaUBKTNV-1">
          <mxGeometry x="827" y="570" width="160" height="80" as="geometry" />
        </mxCell>
        <mxCell id="CHKVVRWl1DC87nrm_dnB-39" value="&lt;div&gt;Ramp up:&lt;/div&gt;&lt;div&gt;Target Time: 210 s&lt;br&gt;&lt;/div&gt;" style="rounded=1;whiteSpace=wrap;html=1;fillColor=#dae8fc;strokeColor=#6c8ebf;" vertex="1" parent="WIyWlLk6GJQsqaUBKTNV-1">
          <mxGeometry x="1060" y="570" width="160" height="80" as="geometry" />
        </mxCell>
        <mxCell id="CHKVVRWl1DC87nrm_dnB-40" style="edgeStyle=orthogonalEdgeStyle;rounded=0;orthogonalLoop=1;jettySize=auto;html=1;exitX=1;exitY=0.5;exitDx=0;exitDy=0;strokeColor=#FF8000;" edge="1" parent="WIyWlLk6GJQsqaUBKTNV-1" source="CHKVVRWl1DC87nrm_dnB-41" target="CHKVVRWl1DC87nrm_dnB-42">
          <mxGeometry relative="1" as="geometry" />
        </mxCell>
        <mxCell id="CHKVVRWl1DC87nrm_dnB-41" value="&lt;div&gt;Peak:&lt;/div&gt;&lt;div&gt;Temp: 249 c&lt;br&gt;&lt;/div&gt;" style="rounded=1;whiteSpace=wrap;html=1;fillColor=#dae8fc;strokeColor=#6c8ebf;" vertex="1" parent="WIyWlLk6GJQsqaUBKTNV-1">
          <mxGeometry x="827" y="700" width="160" height="80" as="geometry" />
        </mxCell>
        <mxCell id="CHKVVRWl1DC87nrm_dnB-48" style="edgeStyle=orthogonalEdgeStyle;orthogonalLoop=1;jettySize=auto;html=1;entryX=1;entryY=0.5;entryDx=0;entryDy=0;exitX=1;exitY=0.5;exitDx=0;exitDy=0;curved=1;strokeColor=#FF8000;" edge="1" parent="WIyWlLk6GJQsqaUBKTNV-1" source="CHKVVRWl1DC87nrm_dnB-49" target="CHKVVRWl1DC87nrm_dnB-17">
          <mxGeometry relative="1" as="geometry">
            <mxPoint x="1543" y="740" as="sourcePoint" />
            <mxPoint x="1170" y="200" as="targetPoint" />
            <Array as="points">
              <mxPoint x="1480" y="740" />
              <mxPoint x="1480" y="210" />
            </Array>
          </mxGeometry>
        </mxCell>
        <mxCell id="CHKVVRWl1DC87nrm_dnB-50" style="edgeStyle=orthogonalEdgeStyle;rounded=0;orthogonalLoop=1;jettySize=auto;html=1;exitX=1;exitY=0.5;exitDx=0;exitDy=0;entryX=0;entryY=0.5;entryDx=0;entryDy=0;strokeColor=#FF8000;" edge="1" parent="WIyWlLk6GJQsqaUBKTNV-1" source="CHKVVRWl1DC87nrm_dnB-42" target="CHKVVRWl1DC87nrm_dnB-49">
          <mxGeometry relative="1" as="geometry" />
        </mxCell>
        <mxCell id="CHKVVRWl1DC87nrm_dnB-42" value="&lt;div&gt;Peak:&lt;/div&gt;&lt;div&gt;Target Time: 249 s&lt;br&gt;&lt;/div&gt;" style="rounded=1;whiteSpace=wrap;html=1;fillColor=#dae8fc;strokeColor=#6c8ebf;" vertex="1" parent="WIyWlLk6GJQsqaUBKTNV-1">
          <mxGeometry x="1060" y="700" width="160" height="80" as="geometry" />
        </mxCell>
        <mxCell id="CHKVVRWl1DC87nrm_dnB-46" style="edgeStyle=orthogonalEdgeStyle;orthogonalLoop=1;jettySize=auto;html=1;exitX=1;exitY=0.5;exitDx=0;exitDy=0;entryX=0;entryY=0.5;entryDx=0;entryDy=0;curved=1;strokeColor=#FF8000;" edge="1" parent="WIyWlLk6GJQsqaUBKTNV-1">
          <mxGeometry relative="1" as="geometry">
            <mxPoint x="1221" y="470" as="sourcePoint" />
            <mxPoint x="828" y="610" as="targetPoint" />
            <Array as="points">
              <mxPoint x="1241" y="470" />
              <mxPoint x="1241" y="540" />
              <mxPoint x="771" y="540" />
              <mxPoint x="771" y="610" />
            </Array>
          </mxGeometry>
        </mxCell>
        <mxCell id="CHKVVRWl1DC87nrm_dnB-47" style="edgeStyle=orthogonalEdgeStyle;orthogonalLoop=1;jettySize=auto;html=1;exitX=1;exitY=0.5;exitDx=0;exitDy=0;entryX=0;entryY=0.5;entryDx=0;entryDy=0;curved=1;strokeColor=#FF8000;" edge="1" parent="WIyWlLk6GJQsqaUBKTNV-1">
          <mxGeometry relative="1" as="geometry">
            <mxPoint x="1221" y="610" as="sourcePoint" />
            <mxPoint x="828" y="750" as="targetPoint" />
            <Array as="points">
              <mxPoint x="1241" y="610" />
              <mxPoint x="1241" y="680" />
              <mxPoint x="771" y="680" />
              <mxPoint x="771" y="750" />
            </Array>
          </mxGeometry>
        </mxCell>
        <mxCell id="CHKVVRWl1DC87nrm_dnB-49" value="&lt;div&gt;Profile n&lt;/div&gt;&lt;div&gt;Saved!&lt;br&gt;&lt;/div&gt;" style="rounded=1;whiteSpace=wrap;html=1;" vertex="1" parent="WIyWlLk6GJQsqaUBKTNV-1">
          <mxGeometry x="1270" y="700" width="160" height="80" as="geometry" />
        </mxCell>
        <mxCell id="CHKVVRWl1DC87nrm_dnB-56" style="edgeStyle=orthogonalEdgeStyle;rounded=0;orthogonalLoop=1;jettySize=auto;html=1;exitX=1;exitY=0.5;exitDx=0;exitDy=0;entryX=0;entryY=0.5;entryDx=0;entryDy=0;strokeColor=#FF8000;" edge="1" parent="WIyWlLk6GJQsqaUBKTNV-1">
          <mxGeometry relative="1" as="geometry">
            <mxPoint x="70" y="670.71" as="sourcePoint" />
            <mxPoint x="180" y="670.71" as="targetPoint" />
          </mxGeometry>
        </mxCell>
        <mxCell id="CHKVVRWl1DC87nrm_dnB-57" value="Select button" style="edgeLabel;html=1;align=center;verticalAlign=middle;resizable=0;points=[];" vertex="1" connectable="0" parent="CHKVVRWl1DC87nrm_dnB-56">
          <mxGeometry x="-0.213" y="-2" relative="1" as="geometry">
            <mxPoint as="offset" />
          </mxGeometry>
        </mxCell>
        <mxCell id="CHKVVRWl1DC87nrm_dnB-58" value="&lt;div&gt;&amp;nbsp;Next button increases value&lt;br&gt;&amp;nbsp;Back button decreases value&lt;/div&gt;" style="rounded=1;whiteSpace=wrap;html=1;fillColor=#dae8fc;strokeColor=#6c8ebf;verticalAlign=top;align=left;fontSize=9;" vertex="1" parent="WIyWlLk6GJQsqaUBKTNV-1">
          <mxGeometry x="70" y="760.71" width="150" height="40" as="geometry" />
        </mxCell>
        <mxCell id="CHKVVRWl1DC87nrm_dnB-59" value="" style="endArrow=classic;startArrow=classic;html=1;rounded=0;exitX=1;exitY=0.5;exitDx=0;exitDy=0;entryX=0;entryY=0.5;entryDx=0;entryDy=0;endFill=1;strokeColor=#FF33FF;" edge="1" parent="WIyWlLk6GJQsqaUBKTNV-1">
          <mxGeometry width="50" height="50" relative="1" as="geometry">
            <mxPoint x="70" y="850" as="sourcePoint" />
            <mxPoint x="147" y="850" as="targetPoint" />
          </mxGeometry>
        </mxCell>
        <mxCell id="CHKVVRWl1DC87nrm_dnB-60" value="Special case:&lt;br style=&quot;font-size: 10px;&quot;&gt;&lt;div style=&quot;font-size: 10px;&quot;&gt;If entered from &#39;view profile&#39; back button goes back.&lt;/div&gt;&lt;div style=&quot;font-size: 10px;&quot;&gt;If entered from editing a profile next button goes back.&lt;br style=&quot;font-size: 10px;&quot;&gt;Else it&#39;s weird cause else you woud go:&lt;/div&gt;&lt;div style=&quot;font-size: 10px;&quot;&gt;next next next and suddenly need the back button to get out.&lt;br style=&quot;font-size: 10px;&quot;&gt;&lt;/div&gt;" style="rounded=1;whiteSpace=wrap;html=1;strokeColor=none;verticalAlign=top;align=left;fontSize=10;" vertex="1" parent="WIyWlLk6GJQsqaUBKTNV-1">
          <mxGeometry x="70" y="860.71" width="330" height="80" as="geometry" />
        </mxCell>
        <mxCell id="CHKVVRWl1DC87nrm_dnB-61" style="edgeStyle=orthogonalEdgeStyle;rounded=0;orthogonalLoop=1;jettySize=auto;html=1;exitX=1;exitY=0.5;exitDx=0;exitDy=0;entryX=0;entryY=0.5;entryDx=0;entryDy=0;strokeColor=#000000;" edge="1" parent="WIyWlLk6GJQsqaUBKTNV-1">
          <mxGeometry relative="1" as="geometry">
            <mxPoint x="70" y="650" as="sourcePoint" />
            <mxPoint x="180" y="650" as="targetPoint" />
          </mxGeometry>
        </mxCell>
        <mxCell id="CHKVVRWl1DC87nrm_dnB-62" value="Next button" style="edgeLabel;html=1;align=center;verticalAlign=middle;resizable=0;points=[];" vertex="1" connectable="0" parent="CHKVVRWl1DC87nrm_dnB-61">
          <mxGeometry x="-0.213" y="-2" relative="1" as="geometry">
            <mxPoint as="offset" />
          </mxGeometry>
        </mxCell>
        <mxCell id="CHKVVRWl1DC87nrm_dnB-65" style="edgeStyle=orthogonalEdgeStyle;rounded=0;orthogonalLoop=1;jettySize=auto;html=1;exitX=0;exitY=0.25;exitDx=0;exitDy=0;entryX=1;entryY=0.25;entryDx=0;entryDy=0;strokeColor=#3399FF;" edge="1" parent="WIyWlLk6GJQsqaUBKTNV-1">
          <mxGeometry relative="1" as="geometry">
            <mxPoint x="180" y="700.71" as="sourcePoint" />
            <mxPoint x="70" y="700.71" as="targetPoint" />
          </mxGeometry>
        </mxCell>
        <mxCell id="CHKVVRWl1DC87nrm_dnB-66" value="&lt;div&gt;Back button&lt;/div&gt;" style="edgeLabel;html=1;align=center;verticalAlign=middle;resizable=0;points=[];" vertex="1" connectable="0" parent="CHKVVRWl1DC87nrm_dnB-65">
          <mxGeometry x="0.0961" y="2" relative="1" as="geometry">
            <mxPoint as="offset" />
          </mxGeometry>
        </mxCell>
        <mxCell id="CHKVVRWl1DC87nrm_dnB-67" style="edgeStyle=orthogonalEdgeStyle;rounded=0;orthogonalLoop=1;jettySize=auto;html=1;entryX=1;entryY=0.25;entryDx=0;entryDy=0;strokeColor=#3399FF;" edge="1" parent="WIyWlLk6GJQsqaUBKTNV-1">
          <mxGeometry relative="1" as="geometry">
            <mxPoint x="590" y="70" as="sourcePoint" />
            <mxPoint x="510" y="70" as="targetPoint" />
          </mxGeometry>
        </mxCell>
      </root>
    </mxGraphModel>
  </diagram>
</mxfile>
